<svg xmlns="http://www.w3.org/2000/svg" viewBox="0 0 512 512"><title>API Route</title><defs><linearGradient id="w" gradientUnits="userSpaceOnUse" x1="466" y1="721" x2="865" y2="462"><stop offset="0.00" stop-color="#fee39d"/><stop offset="0.20" stop-color="#fed08f"/><stop offset="0.40" stop-color="#febc7e"/><stop offset="0.60" stop-color="#fe9b6a"/><stop offset="0.80" stop-color="#fd8c69"/><stop offset="1.00" stop-color="#fc7e68"/></linearGradient><linearGradient id="t" gradientUnits="userSpaceOnUse" x1="67" y1="1128" x2="-249" y2="640"><stop offset="0.00" stop-color="#bfdfb1"/><stop offset="0.20" stop-color="#9ad4b1"/><stop offset="0.40" stop-color="#7ec4a6"/><stop offset="0.60" stop-color="#319d96"/><stop offset="0.80" stop-color="#2d9f97"/><stop offset="1.00" stop-color="#1e938f"/></linearGradient></defs><g transform="translate(0,512) scale(0.5,-0.5)"><path fill="#eff0ca" d="M424 909 c-1 -1 -3 -1 -4 -1 -10 0 -39 -16 -50 -27 -2 -2 -6 -6 -8 -7 -2 -1 -6 -5 -10 -9 -7 -7 -22 -18 -28 -20 -2 -1 -6 -2 -8 -3 -5 -2 -14 -5 -22 -7 -11 -3 -13 -4 -23 -9 -15 -7 -23 -15 -37 -36 -6 -9 -11 -16 -11 -16 0 0 -2 -2 -3 -4 -3 -5 -13 -15 -18 -18 -2 -1 -4 -3 -4 -3 -1 -1 -16 -11 -20 -13 -6 -3 -25 -16 -27 -18 -1 -1 -3 -3 -5 -4 -5 -3 -21 -19 -24 -24 -1 -2 -3 -4 -4 -5 -1 -1 -4 -4 -6 -8 -2 -4 -5 -7 -6 -8 0 0 -2 -3 -4 -6 -2 -3 -6 -9 -9 -14 -8 -13 -20 -32 -22 -38 -8 -17 -8 -18 -9 -33 -1 -32 20 -51 65 -56 7 -1 14 -2 59 -4 32 -2 59 -5 72 -8 2 -1 7 -2 9 -2 2 0 6 -1 9 -2 4 -1 33 -11 41 -14 3 -1 7 -3 9 -4 6 -2 32 -15 40 -20 8 -5 25 -16 26 -17 0 0 2 -2 4 -3 2 -1 4 -3 4 -3 0 0 2 -2 4 -3 4 -3 13 -11 18 -17 2 -2 7 -6 11 -10 3 -4 8 -9 9 -11 1 -2 3 -4 4 -5 1 -1 3 -3 4 -5 1 -2 3 -4 4 -5 4 -5 21 -35 25 -45 4 -11 8 -25 9 -28 1 -2 1 -6 2 -8 3 -11 5 -24 6 -36 3 -26 0 -63 -6 -88 -1 -2 -1 -6 -2 -8 0 -2 -2 -6 -2 -9 -1 -3 -3 -7 -3 -9 -1 -3 -2 -6 -2 -8 -6 -19 19 -41 39 -34 20 6 26 22 19 44 -4 14 -6 20 -7 24 -1 2 -1 6 -2 8 -2 8 -3 16 -6 34 -2 9 -2 56 0 64 0 3 1 7 2 10 0 2 1 5 2 8 4 19 24 62 34 73 1 1 3 3 4 5 1 2 3 4 3 4 0 0 2 2 3 4 1 2 4 6 7 8 3 2 6 6 7 8 3 4 11 13 16 16 2 1 6 5 9 8 3 3 7 7 9 8 2 1 4 3 4 3 0 0 2 2 4 3 2 1 4 3 4 3 4 6 45 29 66 38 3 1 8 4 11 4 5 3 26 10 31 11 2 1 6 1 8 2 2 1 6 1 8 2 6 2 21 4 31 6 13 2 26 4 79 8 17 1 39 4 46 6 2 1 6 1 8 2 2 0 5 1 7 2 1 1 4 2 4 2 5 0 19 12 25 21 5 8 8 26 5 36 -4 13 -8 24 -12 31 -2 3 -5 8 -6 11 -2 3 -5 8 -7 12 -11 17 -24 35 -25 36 0 1 -2 3 -3 5 -1 2 -4 5 -5 6 -1 1 -4 4 -5 6 -3 5 -14 15 -18 18 -2 1 -4 3 -5 4 -2 2 -20 14 -33 22 -6 4 -12 8 -14 9 -1 1 -4 4 -6 5 -5 3 -13 12 -16 16 -1 2 -3 4 -3 4 -1 1 -11 15 -12 19 -1 1 -3 3 -3 4 -1 1 -3 3 -4 5 -8 12 -27 25 -41 29 -4 1 -7 1 -17 4 -20 5 -41 14 -46 20 0 0 -2 2 -4 3 -2 1 -7 6 -12 11 -5 5 -10 10 -12 11 -2 1 -4 3 -5 4 -3 3 -17 12 -22 14 -6 2 -15 5 -21 7 -9 3 -25 1 -34 -4 -8 -4 -26 -27 -26 -32 0 -1 -1 -3 -3 -6 -2 -5 -9 -26 -11 -33 -1 -4 -2 -10 -4 -16 -1 -3 -2 -7 -2 -9 -1 -3 -1 -7 -2 -10 -4 -18 -7 -50 -8 -75 0 -10 -1 -18 -1 -18 -1 -1 -1 -5 -1 -10 0 -16 -2 -10 -2 7 -1 17 -2 33 -4 50 -1 5 -1 13 -2 18 -1 9 -2 19 -4 29 -1 3 -1 9 -2 12 -1 9 -4 23 -6 30 -1 2 -1 6 -2 8 -9 39 -30 62 -56 62 -5 0 -9 0 -10 -1z"/><path fill="url(#w)" d="M577 906 c-8 -3 -11 -5 -17 -11 -5 -5 -16 -22 -16 -24 0 -1 -1 -3 -3 -6 -2 -5 -9 -26 -11 -33 -1 -2 -1 -5 -2 -7 -2 -11 -3 -14 -4 -18 -1 -3 -1 -7 -2 -10 -2 -9 -5 -30 -6 -46 -3 -28 -3 -57 -4 -190 0 -79 -1 -145 -1 -146 0 -1 1 -9 1 -18 1 -9 1 -24 2 -35 1 -29 2 -33 4 -34 1 -1 2 -2 2 -3 0 -3 2 -2 3 1 1 3 2 3 5 2 4 0 5 -2 3 -4 -1 -2 -1 -5 0 -5 1 0 1 1 1 2 0 2 0 3 1 4 0 0 1 3 2 5 3 9 22 45 27 51 1 1 3 3 4 5 1 2 3 4 3 4 0 0 2 2 3 4 1 2 4 6 7 8 3 2 6 6 7 8 3 4 11 13 16 16 2 1 6 5 9 8 3 3 7 7 9 8 2 1 4 3 4 3 0 0 2 2 4 3 2 1 4 3 4 3 4 6 45 29 66 38 3 1 8 4 11 4 5 3 26 10 31 11 2 1 6 1 8 2 2 1 6 1 8 2 3 1 7 2 9 2 3 1 7 1 10 2 19 4 30 5 91 10 17 1 39 4 46 6 2 0 5 1 8 2 2 0 5 1 7 2 1 1 4 2 4 2 5 0 19 12 25 21 5 8 8 26 5 36 -4 13 -8 24 -12 31 -2 3 -5 8 -6 11 -2 3 -5 8 -7 12 -11 17 -24 35 -25 36 0 1 -2 3 -3 5 -1 2 -4 5 -5 6 -1 1 -4 4 -5 6 -3 5 -14 15 -18 18 -2 1 -4 3 -5 4 -2 2 -20 14 -33 22 -6 4 -12 8 -14 9 -1 1 -4 4 -6 5 -5 3 -13 12 -16 16 -1 2 -3 4 -3 4 -1 1 -11 15 -12 19 -1 1 -3 3 -3 4 -1 1 -3 3 -4 5 -7 9 -16 17 -29 24 -8 3 -11 5 -21 7 -11 3 -13 3 -22 6 -13 4 -29 12 -32 16 0 0 -2 2 -4 3 -2 1 -7 6 -12 11 -5 5 -10 10 -12 11 -2 1 -4 3 -5 4 -3 3 -17 12 -22 14 -6 2 -15 5 -21 7 -5 2 -22 1 -27 -1z"/><path fill="url(#t)" d="M424 909 c-1 -1 -3 -1 -4 -1 -10 0 -39 -16 -50 -27 -2 -2 -6 -6 -8 -7 -2 -1 -6 -5 -10 -9 -7 -7 -22 -18 -28 -20 -2 -1 -6 -2 -8 -3 -5 -2 -14 -5 -22 -7 -11 -3 -13 -4 -23 -9 -15 -7 -23 -15 -37 -36 -6 -9 -11 -16 -11 -16 0 0 -2 -2 -3 -4 -3 -5 -13 -15 -18 -18 -2 -1 -4 -3 -4 -3 -1 -1 -16 -11 -20 -13 -6 -3 -25 -16 -27 -18 -1 -1 -3 -3 -5 -4 -5 -3 -21 -19 -24 -24 -1 -2 -3 -4 -4 -5 -1 -1 -4 -4 -6 -8 -2 -4 -5 -7 -6 -8 0 0 -2 -3 -4 -6 -2 -3 -6 -9 -9 -14 -8 -13 -20 -32 -22 -38 -8 -17 -8 -18 -9 -33 -1 -32 20 -51 65 -56 7 -1 14 -2 59 -4 32 -2 59 -5 72 -8 2 -1 7 -2 9 -2 2 0 6 -1 9 -2 4 -1 33 -11 41 -14 3 -1 7 -3 9 -4 6 -2 32 -15 40 -20 8 -5 25 -16 26 -17 0 0 2 -2 4 -3 2 -1 4 -3 4 -3 0 0 2 -2 4 -3 4 -3 13 -11 18 -17 2 -2 7 -6 11 -10 3 -4 8 -9 9 -11 1 -2 3 -4 4 -5 1 -1 3 -3 4 -5 1 -2 3 -4 4 -5 4 -5 21 -35 25 -45 4 -11 8 -25 9 -28 1 -2 1 -6 2 -8 3 -11 5 -24 6 -36 3 -26 0 -63 -6 -88 -1 -2 -1 -6 -2 -8 0 -2 -2 -6 -2 -9 -1 -3 -3 -7 -3 -9 -1 -3 -2 -6 -2 -8 -6 -19 19 -41 39 -34 20 6 26 22 19 44 -4 14 -6 20 -7 24 -1 2 -1 6 -2 8 -9 36 -11 75 -6 101 1 3 1 7 2 10 0 2 1 6 2 9 0 2 1 5 2 7 0 1 1 4 1 5 2 2 1 4 -3 4 -3 1 -4 1 -5 -2 -1 -3 -3 -4 -3 -1 0 1 -1 2 -2 3 -2 1 -3 5 -4 34 -1 11 -1 26 -2 35 0 9 -1 17 -1 18 0 2 0 63 0 136 0 139 0 158 -5 200 -1 5 -1 13 -2 18 -1 9 -2 19 -4 29 -1 3 -1 9 -2 12 -1 9 -4 23 -6 30 -1 2 -1 6 -2 8 -9 39 -30 62 -56 62 -5 0 -9 0 -10 -1z"/><path fill="#eff0ca" d="M751 804 c-1 -1 -2 -2 -3 -2 -1 0 -2 -1 -3 -2 -1 -1 -2 -2 -3 -2 -1 0 -4 -2 -6 -5 -3 -3 -5 -5 -6 -5 -2 0 -16 -14 -20 -20 -2 -2 -4 -4 -4 -5 -6 -6 -26 -40 -31 -53 0 -3 -3 -9 -5 -15 -2 -6 -5 -12 -5 -15 -5 -12 -24 -47 -28 -50 0 0 -2 -2 -3 -4 -1 -2 -3 -4 -4 -5 -1 -1 -3 -3 -4 -5 -1 -2 -4 -5 -6 -7 -2 -2 -5 -5 -6 -7 -1 -2 -4 -5 -6 -7 -2 -2 -5 -5 -6 -7 -1 -2 -4 -5 -5 -6 -1 -1 -4 -4 -5 -6 -1 -2 -3 -4 -3 -4 0 0 -2 -2 -3 -4 -1 -2 -3 -4 -3 -4 0 0 -4 -5 -7 -10 -3 -5 -7 -10 -7 -10 -3 -2 -21 -36 -30 -55 -5 -13 -14 -38 -15 -46 -1 -2 -1 -7 -2 -9 -2 -8 -3 -14 -4 -21 0 -6 -1 -6 -3 -6 -2 0 -2 0 -3 73 0 47 0 73 -1 73 -1 0 -1 -4 -1 -11 0 -11 0 -11 -3 -12 -5 -3 -9 -1 -9 5 0 1 0 3 -1 4 -1 0 -1 2 -1 5 0 2 0 4 -1 5 -1 0 -1 2 -1 4 0 1 0 3 -1 4 -1 0 -1 2 -1 5 0 2 0 4 -1 5 -1 0 -1 2 -1 5 0 2 0 4 -1 5 -1 0 -1 2 -1 4 0 1 0 3 -1 4 -1 0 -1 2 -1 4 0 1 0 3 -1 4 -1 0 -1 1 -1 3 0 3 0 4 -3 9 0 1 -1 3 -1 5 0 2 0 4 -1 5 -1 1 -1 3 -2 4 -1 1 -1 3 -1 4 0 1 0 2 -1 3 -1 0 -1 1 -1 3 0 1 0 2 -1 2 -1 0 -1 -4 0 -4 1 -1 1 -2 1 -3 0 -2 0 -3 1 -3 1 -1 1 -3 1 -5 0 -3 0 -4 3 -9 0 -1 1 -4 1 -5 0 -2 0 -4 1 -4 1 -1 1 -3 1 -4 0 -2 0 -4 1 -4 1 -1 1 -3 1 -4 0 -2 0 -4 1 -4 1 -1 1 -3 1 -5 0 -3 0 -5 1 -5 1 -1 1 -3 1 -4 0 -2 0 -4 1 -5 1 0 1 -2 1 -4 0 -3 0 -5 1 -5 1 -1 1 -3 1 -5 0 -3 0 -5 1 -5 1 -1 1 -3 1 -5 0 -3 0 -5 1 -6 0 0 1 -3 1 -5 1 -3 1 -8 2 -12 1 -4 1 -9 2 -13 1 -4 1 -9 2 -13 1 -4 2 -11 2 -16 1 -6 1 -15 2 -20 2 -20 2 -23 -1 -23 -2 0 -3 1 -6 14 -3 10 -15 47 -19 55 -2 5 -5 11 -6 14 -1 2 -4 8 -6 11 -2 4 -6 10 -8 14 -5 8 -14 22 -15 23 0 0 -2 2 -3 4 -1 2 -3 4 -3 4 0 0 -2 2 -3 4 -1 2 -3 4 -4 5 -1 1 -3 3 -4 5 -1 2 -4 5 -5 6 -1 1 -4 4 -5 6 -1 2 -4 5 -6 7 -2 2 -5 5 -6 7 -1 2 -4 5 -5 6 -1 1 -4 4 -5 6 -1 2 -3 4 -4 5 -3 3 -12 17 -18 30 -8 14 -8 14 -16 38 -8 23 -8 24 -14 35 -8 16 -16 28 -20 31 -1 1 -2 3 -2 3 0 2 -18 20 -20 20 -1 0 -3 2 -5 4 -5 4 10 -13 16 -19 3 -2 5 -5 5 -6 0 0 1 -2 2 -3 9 -8 21 -32 32 -65 8 -23 11 -32 17 -44 1 -1 2 -3 2 -4 3 -5 -4 -7 -9 -2 -1 1 -4 4 -6 5 -2 1 -4 3 -4 3 -1 1 -18 12 -26 17 -7 4 -14 8 -41 21 -4 2 -7 3 -8 3 -1 0 -2 0 -3 1 0 1 -1 1 -2 1 -2 0 -3 0 -3 1 -1 1 -2 1 -3 1 -1 0 -4 1 -6 2 -1 1 -5 2 -6 2 -2 0 -4 0 -5 1 0 1 -1 1 -3 1 -1 0 -2 0 -3 1 0 1 -4 1 -4 0 0 -1 1 -1 2 -1 2 0 3 0 3 -1 1 -1 2 -1 3 -1 2 0 4 -1 5 -2 1 -1 3 -2 5 -2 1 0 2 0 3 -1 0 -1 1 -1 2 -1 1 0 4 -1 8 -3 3 -2 6 -3 6 -3 2 0 32 -15 40 -20 8 -5 25 -16 26 -17 0 0 2 -2 4 -3 2 -1 4 -3 4 -3 0 0 2 -2 4 -3 2 -1 5 -4 6 -5 1 -1 4 -4 6 -5 5 -3 39 -37 42 -42 1 -2 4 -5 6 -7 2 -2 5 -5 6 -7 1 -2 3 -4 4 -5 1 -1 3 -3 4 -5 1 -2 3 -4 3 -4 0 0 3 -3 5 -7 2 -4 5 -7 6 -8 1 -2 8 -12 18 -30 10 -17 19 -40 29 -69 1 -5 3 -10 3 -12 1 -3 2 -6 2 -8 1 -3 2 -7 2 -9 1 -3 1 -7 2 -10 3 -14 4 -22 6 -34 1 -4 1 -9 2 -13 1 -4 2 -10 2 -13 1 -4 1 -11 2 -14 1 -4 1 -11 2 -16 1 -14 2 -16 5 -16 2 0 2 0 4 5 0 2 2 7 3 11 3 8 3 8 -2 8 -3 0 -3 0 -3 8 0 21 4 54 7 70 1 3 1 7 2 10 0 2 1 6 2 9 2 6 3 12 4 16 1 5 8 27 11 32 3 7 11 25 13 28 0 1 2 5 4 9 5 10 23 37 25 39 0 0 2 2 3 4 1 2 3 4 3 4 0 0 2 2 3 4 1 2 4 5 5 6 1 1 4 4 5 6 1 2 6 7 10 11 4 4 9 9 10 11 3 5 17 19 22 22 2 1 6 5 9 8 3 3 7 7 9 8 2 1 5 4 6 5 1 1 4 4 6 5 2 1 4 3 4 3 0 0 3 3 7 5 4 2 7 5 8 6 0 0 3 2 6 4 3 2 9 5 12 8 7 4 42 22 44 22 1 0 4 1 7 3 4 2 7 3 8 3 1 0 2 0 3 1 0 1 1 1 3 1 1 0 2 0 3 1 0 1 1 1 3 1 1 0 2 0 3 1 0 1 1 1 3 1 1 0 2 0 3 1 0 1 1 1 3 1 1 0 2 0 3 1 0 1 1 1 2 1 1 0 3 0 4 1 1 1 3 1 4 2 1 1 4 1 5 1 2 0 4 0 5 1 0 1 1 1 2 1 1 0 2 0 2 1 0 1 -6 1 -8 0 -5 -3 -6 -3 -9 -3 -2 0 -4 0 -4 -1 -1 -1 -2 -1 -3 -1 -2 0 -3 0 -3 -1 -1 -1 -3 -1 -4 -1 -2 0 -4 0 -4 -1 -1 -1 -2 -1 -3 -1 -2 0 -3 0 -3 -1 -1 -1 -2 -1 -3 -1 -2 0 -3 0 -3 -1 -1 -1 -2 -1 -3 -1 -2 0 -3 0 -3 -1 -1 -1 -2 -1 -3 -1 -2 0 -3 0 -3 -1 -1 -1 -2 -1 -3 -1 0 0 -3 -1 -6 -2 -2 -1 -8 -4 -11 -5 -22 -9 -62 -33 -66 -38 0 0 -3 -3 -7 -5 -3 -2 -8 -6 -10 -8 -8 -7 -12 -3 -6 7 2 2 3 5 3 6 0 0 2 5 4 10 5 9 7 13 16 41 4 11 9 23 12 28 0 1 3 6 5 10 3 6 8 15 10 16 0 0 2 3 4 5 2 2 4 5 5 6 4 6 17 19 18 19 1 0 4 2 6 5 3 3 5 5 6 5 1 0 3 2 4 4 3 3 4 5 1 2z M581 690 c-2 -4 -3 -7 -3 -8 0 0 -1 -3 -3 -6 -2 -4 -3 -7 -3 -8 0 -1 -4 -8 -5 -9 -1 -1 -1 -3 -1 -4 0 -2 0 -3 -1 -3 -1 -1 -1 -2 -1 -3 0 -2 0 -3 -1 -3 -1 -1 -1 -2 -1 -3 0 -2 -1 -4 -2 -5 -1 -1 -2 -3 -2 -5 0 -1 0 -2 -1 -2 -1 -1 -1 -3 -1 -5 0 -1 -1 -4 -1 -5 -3 -5 -3 -6 -3 -8 0 -1 0 -2 -1 -2 -1 -1 -1 -2 -1 -3 0 -2 0 -3 -1 -3 -1 -1 -1 -3 -1 -4 0 -2 0 -4 -1 -4 -1 -1 -1 -3 -1 -5 0 -2 0 -4 -1 -4 -1 -1 -1 -2 -1 -4 0 -2 0 -3 1 -3 1 0 1 1 1 3 0 2 0 4 1 5 1 1 1 3 2 4 1 1 1 3 1 5 0 2 0 3 1 4 1 0 1 1 1 3 0 1 0 2 1 3 1 0 1 1 1 3 0 1 0 2 1 3 1 0 1 2 1 4 0 1 0 4 1 5 1 1 1 3 2 4 1 1 1 3 1 4 0 1 0 2 1 3 1 0 1 1 1 3 0 2 0 3 1 4 1 0 1 1 1 3 0 1 0 2 1 3 1 0 1 1 1 2 0 2 1 4 2 5 1 1 2 3 2 5 0 1 1 4 2 6 1 1 2 4 2 4 0 1 1 4 3 8 2 3 3 6 3 7 0 0 1 3 3 7 3 6 3 6 2 6 0 0 -2 -3 -4 -7z M773 615 c-1 -1 -2 -1 -3 -1 -2 0 -3 0 -3 -1 -1 -1 -2 -1 -3 -1 -2 0 -3 0 -3 -1 -1 -1 -2 -1 -4 -1 -2 0 -3 0 -3 -1 -1 -1 -2 -1 -3 -1 -2 0 -4 -1 -5 -2 -1 -1 -4 -2 -5 -2 -1 0 -4 -1 -5 -2 -1 -1 -4 -2 -5 -2 -1 0 -4 -1 -6 -2 -4 -3 -15 -8 -30 -15 -5 -3 -8 -5 -8 -5 0 -1 -1 -2 -3 -2 -2 -1 -5 -2 -7 -3 -2 -1 -4 -3 -4 -3 -1 -1 -2 -2 -3 -2 -1 0 -2 -1 -3 -2 -1 -1 -2 -2 -3 -2 -1 0 -3 -1 -3 -2 -1 -1 -3 -2 -3 -2 -1 0 -3 -1 -3 -2 -1 -1 -3 -2 -4 -2 0 0 -2 -2 -4 -4 -2 -2 -4 -4 -5 -4 -1 0 -3 -2 -5 -4 -2 -2 -4 -4 -5 -4 -1 0 -40 -39 -40 -40 0 -1 -2 -3 -4 -5 -2 -2 -4 -4 -4 -5 0 -1 -1 -3 -3 -4 -2 -2 -3 -4 -3 -4 0 -1 -1 -3 -3 -4 -2 -2 -3 -4 -3 -5 0 0 -1 -1 -2 -2 -2 -3 -4 -7 -1 -5 0 1 1 2 1 2 0 1 1 3 2 4 1 0 2 2 2 2 0 1 1 3 3 5 2 1 3 3 3 4 0 0 2 2 4 4 2 2 4 4 4 5 0 1 3 5 7 8 4 3 7 7 7 8 0 2 20 22 22 22 1 0 4 3 7 6 3 3 6 6 7 6 1 0 3 1 4 3 1 2 3 3 4 3 1 0 3 1 5 3 1 2 3 3 4 3 0 0 2 1 3 2 0 1 2 2 3 2 0 0 2 1 3 3 1 2 3 3 4 3 1 0 2 1 3 2 1 1 2 2 2 2 2 0 8 3 8 4 0 1 2 2 4 3 10 4 18 8 18 9 0 1 18 10 20 10 2 0 9 3 10 5 1 1 3 1 4 1 1 0 4 1 5 2 1 1 4 2 5 2 2 0 3 0 4 1 0 1 1 1 2 1 2 0 4 1 5 2 1 1 3 2 5 2 1 0 2 0 3 1 0 1 1 1 2 1 2 0 7 2 7 3 0 1 -2 1 -2 0z M331 584 c1 0 4 -2 8 -4 3 -2 6 -4 7 -4 0 -1 2 -2 4 -3 3 -1 5 -3 5 -3 1 -1 2 -2 3 -2 1 0 2 -1 3 -2 1 -1 2 -2 3 -2 1 0 2 -1 3 -2 1 -1 2 -2 3 -2 1 0 2 -1 3 -2 1 -1 2 -2 3 -2 1 0 3 -1 4 -3 1 -2 3 -3 4 -3 1 0 3 -1 4 -3 1 -2 3 -3 4 -3 1 0 4 -2 6 -5 2 -3 5 -5 6 -5 2 0 32 -30 32 -32 0 -1 2 -3 4 -5 2 -2 4 -4 4 -5 0 -1 2 -3 5 -6 2 -2 4 -2 3 -1 -1 1 -2 2 -2 3 0 1 -2 3 -4 5 -2 2 -4 4 -4 5 0 1 -4 5 -8 9 -4 4 -8 8 -8 9 0 2 -8 10 -10 10 -1 0 -5 3 -8 7 -4 4 -7 7 -8 7 -1 0 -4 2 -6 5 -2 3 -5 5 -6 5 -1 0 -3 1 -4 3 -1 2 -3 3 -4 3 -1 0 -2 1 -3 2 -1 1 -2 2 -3 2 -1 0 -2 1 -3 2 -1 1 -2 2 -3 2 -1 0 -2 1 -3 2 -1 1 -2 2 -3 2 -1 0 -2 1 -3 2 -1 1 -2 2 -2 2 -2 0 -10 4 -13 6 -1 1 -4 3 -6 4 -3 1 -6 3 -6 3 -1 0 -1 0 -1 -1z"/></g></svg>
