<?xml version="1.0" standalone="no"?>
<!DOCTYPE svg PUBLIC "-//W3C//DTD SVG 20010904//EN"
 "http://www.w3.org/TR/2001/REC-SVG-20010904/DTD/svg10.dtd">
<svg version="1.0" xmlns="http://www.w3.org/2000/svg"
 width="96.000000pt" height="96.000000pt" viewBox="0 0 96.000000 96.000000"
 preserveAspectRatio="xMidYMid meet">

<g transform="translate(0.000000,96.000000) scale(0.100000,-0.100000)"
fill="#000000" stroke="none">
<path d="M309 688 c110 -277 132 -310 194 -294 21 5 33 25 73 118 26 62 55
132 65 156 l19 43 -36 -3 c-35 -3 -37 -5 -74 -93 -74 -177 -71 -172 -80 -150
-4 11 -29 71 -55 133 -47 111 -47 112 -81 112 -31 0 -33 -2 -25 -22z"/>
<path d="M131 550 l-11 -34 95 -96 c52 -52 95 -99 95 -103 0 -4 -63 -7 -140
-7 l-140 0 -10 -26 c-6 -14 -10 -27 -10 -30 0 -2 76 -4 169 -4 187 0 201 4
201 60 0 23 -24 53 -118 151 l-119 123 -12 -34z"/>
<path d="M691 454 c-89 -92 -111 -121 -111 -144 0 -56 14 -60 201 -60 93 0
169 2 169 4 0 3 -4 16 -10 30 l-10 26 -147 0 -148 0 103 103 c97 98 102 105
93 130 -6 15 -15 27 -20 27 -5 0 -59 -52 -120 -116z"/>
</g>
</svg>
