<?xml version="1.0" encoding="UTF-8"?>
<svg version="1.1" xmlns="http://www.w3.org/2000/svg" width="512" height="512">
<path d="M0 0 C3.94494177 0.0070698 7.88980481 -0.00906422 11.8347224 -0.02199733 C19.53965463 -0.04351478 27.24443847 -0.04354201 34.94939081 -0.03537179 C41.2192949 -0.02904258 47.4891561 -0.03023542 53.75905979 -0.03664386 C54.65532555 -0.03754552 55.55159132 -0.03844717 56.47501665 -0.03937615 C58.29645069 -0.04122757 60.11788472 -0.04309014 61.93931874 -0.04496371 C78.97658963 -0.06149985 96.01377743 -0.05285912 113.05104329 -0.03597813 C128.59424752 -0.02128892 144.13725829 -0.03590606 159.6804376 -0.06474829 C175.69001556 -0.09423179 191.69950452 -0.10508832 207.70910841 -0.09556609 C209.52433267 -0.09454368 211.33955694 -0.09354906 213.15478122 -0.09258258 C214.49403404 -0.091868 214.49403404 -0.091868 215.86034248 -0.09113898 C222.11146869 -0.08898643 228.36250951 -0.09871686 234.61361682 -0.11335361 C242.2480646 -0.13098201 249.88226616 -0.13061063 257.51670472 -0.10800195 C261.40201831 -0.09695351 265.28689985 -0.09347963 269.17219341 -0.11230266 C303.5062909 -0.26623523 332.8419791 6.41530265 358.02483165 30.91255772 C359.32807384 32.21193272 359.32807384 32.21193272 360.65764415 33.53755772 C361.36147228 34.21818272 362.0653004 34.89880772 362.79045665 35.60005772 C386.17639639 59.83811673 390.2883644 90.83448298 390.19520187 122.87991357 C390.18813207 126.82485534 390.2042661 130.76971838 390.21719921 134.71463597 C390.23871665 142.4195682 390.23874389 150.12435204 390.23057366 157.82930437 C390.22424445 164.09920847 390.2254373 170.36906967 390.23184574 176.63897336 C390.23274739 177.53523912 390.23364905 178.43150488 390.23457802 179.35493022 C390.23642945 181.17636426 390.23829201 182.99779829 390.24016558 184.81923231 C390.25670172 201.8565032 390.24806099 218.893691 390.23118 235.93095686 C390.2164908 251.47416109 390.23110793 267.01717185 390.25995017 282.56035117 C390.28943367 298.56992913 390.30029019 314.57941809 390.29076797 330.58902198 C390.28974555 332.40424624 390.28875093 334.21947051 390.28778446 336.03469479 C390.28730807 336.92753 390.28683168 337.82036522 390.28634085 338.74025605 C390.2841883 344.99138226 390.29391874 351.24242308 390.30855548 357.49353039 C390.32618389 365.12797817 390.3258125 372.76217973 390.30320383 380.39661828 C390.29215538 384.28193188 390.2886815 388.16681342 390.30750453 392.05210698 C390.4614371 426.38620447 383.77989922 455.72189267 359.28264415 480.90474522 C358.41639415 481.77357335 357.55014415 482.64240147 356.65764415 483.53755772 C355.97701915 484.24138585 355.29639415 484.94521397 354.59514415 485.67037022 C330.35708515 509.05630996 299.3607189 513.16827797 267.31528831 513.07511544 C263.37034654 513.06804564 259.4254835 513.08417967 255.48056591 513.09711277 C247.77563367 513.11863022 240.07084984 513.11865745 232.3658975 513.11048723 C226.0959934 513.10415802 219.82613221 513.10535086 213.55622852 513.11175931 C212.65996275 513.11266096 211.76369699 513.11356262 210.84027166 513.11449159 C209.01883761 513.11634302 207.19740358 513.11820558 205.37596957 513.12007915 C188.33869868 513.13661529 171.30151087 513.12797456 154.26424501 513.11109357 C138.72104079 513.09640437 123.17803002 513.1110215 107.6348507 513.13986374 C91.62527274 513.16934723 75.61578378 513.18020376 59.60617989 513.17068154 C57.79095564 513.16965912 55.97573137 513.1686645 54.16050708 513.16769803 C53.26767187 513.16722164 52.37483666 513.16674525 51.45494583 513.16625442 C45.20381962 513.16410187 38.95277879 513.1738323 32.70167148 513.18846905 C25.0672237 513.20609746 17.43302214 513.20572607 9.79858359 513.1831174 C5.91327 513.17206895 2.02838845 513.16859507 -1.8569051 513.1874181 C-36.19100259 513.34135067 -65.52669079 506.65981279 -90.70954335 482.16255772 C-91.57837147 481.29630772 -92.4471996 480.43005772 -93.34235585 479.53755772 C-94.04618397 478.85693272 -94.7500121 478.17630772 -95.47516835 477.47505772 C-118.86110809 453.23699872 -122.9730761 422.24063246 -122.87991357 390.19520187 C-122.87284377 386.25026011 -122.88897779 382.30539706 -122.9019109 378.36047947 C-122.92342835 370.65554724 -122.92345558 362.95076341 -122.91528536 355.24581107 C-122.90895615 348.97590697 -122.91014899 342.70604577 -122.91655743 336.43614209 C-122.91745909 335.53987632 -122.91836074 334.64361056 -122.91928972 333.72018522 C-122.92114114 331.89875118 -122.9230037 330.07731715 -122.92487728 328.25588313 C-122.94141341 311.21861225 -122.93277269 294.18142444 -122.9158917 277.14415858 C-122.90120249 261.60095436 -122.91581962 246.05794359 -122.94466186 230.51476427 C-122.97414536 214.50518631 -122.98500189 198.49569735 -122.97547966 182.48609346 C-122.97445725 180.67086921 -122.97346263 178.85564494 -122.97249615 177.04042065 C-122.97201976 176.14758544 -122.97154337 175.25475022 -122.97105255 174.3348594 C-122.96889999 168.08373319 -122.97863043 161.83269236 -122.99326718 155.58158505 C-123.01089558 147.94713727 -123.0105242 140.31293571 -122.98791552 132.67849716 C-122.97686707 128.79318357 -122.97339319 124.90830202 -122.99221623 121.02300847 C-123.1461488 86.68891098 -116.46461092 57.35322277 -91.96735585 32.17037022 C-91.10110585 31.3015421 -90.23485585 30.43271397 -89.34235585 29.53755772 C-88.66173085 28.8337296 -87.98110585 28.12990147 -87.27985585 27.40474522 C-63.04179684 4.01880548 -32.04543059 -0.09316253 0 0 Z " fill="#5D45D6" transform="translate(122.3423558473587,-0.5375577211380005)"/>
<path d="M0 0 C0.75575392 -0.00297112 1.51150784 -0.00594224 2.2901634 -0.0090034 C4.83028404 -0.0176959 7.37035759 -0.01919913 9.91049194 -0.02069092 C11.72882183 -0.02531881 13.54715074 -0.03034343 15.36547852 -0.03573608 C20.31202803 -0.04886745 25.25856397 -0.05530683 30.20512819 -0.05974674 C33.29627318 -0.06267712 36.38741446 -0.06678194 39.47855759 -0.07125092 C49.15188379 -0.08492965 58.8252015 -0.09459367 68.49853671 -0.09845281 C79.66085007 -0.10293043 90.82304079 -0.12046302 101.98531687 -0.1494534 C110.61474852 -0.17108634 119.24414571 -0.181158 127.87360418 -0.18249393 C133.02651836 -0.18354107 138.17931731 -0.18942936 143.33220291 -0.20731354 C148.183117 -0.22382137 153.0338296 -0.22593653 157.88476181 -0.21717453 C159.66125275 -0.21640553 161.43775464 -0.22072876 163.21421814 -0.23063278 C182.38147819 -0.33118902 182.38147819 -0.33118902 190.95101929 5.32794189 C195.8944833 10.50133447 197.86500276 14.93879048 198.20101929 22.14044189 C197.955658 28.8498041 195.80080584 32.97815534 191.11117554 37.66778564 C185.78542301 42.34306458 181.88834883 43.43742552 174.9155426 43.40786743 C174.13302181 43.41239854 173.35050102 43.41692966 172.54426748 43.42159808 C169.91961902 43.43426811 167.29517738 43.43262003 164.67050171 43.43096924 C162.78966504 43.4369529 160.90883084 43.44375807 159.02799988 43.45132446 C153.9163464 43.46900906 148.80475986 43.4736809 143.69307876 43.47495604 C139.42622205 43.47685447 135.15938096 43.48421145 130.89253026 43.49130023 C120.82502312 43.50759145 110.75755176 43.51246854 100.69003296 43.51104736 C90.30514529 43.509846 79.92046548 43.53094507 69.5356304 43.56253469 C60.62000526 43.58868863 51.70444802 43.59941501 42.7887848 43.59813654 C37.46377753 43.59762661 32.13895489 43.60332692 26.81398582 43.62449265 C21.80460001 43.64385986 16.79557525 43.6440098 11.78617668 43.62945938 C9.94918033 43.62736824 8.11216147 43.63209032 6.2752037 43.6441803 C3.76386116 43.65963613 1.25376299 43.65032308 -1.2575531 43.63491821 C-1.9814968 43.64520534 -2.70544051 43.65549247 -3.4513219 43.66609132 C-9.6263385 43.58260354 -13.77173222 41.53582793 -18.28726196 37.35919189 C-18.74487915 36.79200439 -19.20249634 36.22481689 -19.67398071 35.64044189 C-20.14448853 35.07325439 -20.61499634 34.50606689 -21.09976196 33.92169189 C-25.26700398 28.03852669 -25.28667861 22.18681519 -24.36148071 15.14044189 C-21.67312888 8.37014409 -16.83239022 4.23102554 -10.36148071 1.14044189 C-6.83854524 -0.03386993 -3.66506621 -0.00448017 0 0 Z " fill="#E9E7FA" transform="translate(65.36148071289063,267.85955810546875)"/>
<path d="M0 0 C0.76321546 -0.00438225 1.52643092 -0.00876451 2.31277412 -0.01327956 C4.87819121 -0.0266672 7.44357395 -0.0328464 10.00901794 -0.03897095 C11.84543005 -0.0468721 13.6818406 -0.05514106 15.51824951 -0.06375122 C21.55739356 -0.08997536 27.59654455 -0.1052818 33.63572693 -0.11953735 C35.71541282 -0.12489735 37.79509867 -0.13027486 39.87478447 -0.13566971 C48.52787074 -0.15730127 57.18095515 -0.17603662 65.83406162 -0.1872921 C78.22916886 -0.20352133 90.62396212 -0.23667118 103.018951 -0.29369295 C111.73671774 -0.33242791 120.45440064 -0.35192916 129.17225116 -0.35721266 C134.37727096 -0.36086195 139.5819559 -0.3728381 144.7868824 -0.4053154 C149.68796027 -0.43545753 154.58850177 -0.4416859 159.48965263 -0.42993164 C161.28347654 -0.4297114 163.07732576 -0.43797503 164.87106323 -0.45558548 C183.13728463 -0.62508055 183.13728463 -0.62508055 190.56932068 5.15390015 C196.52778726 11.50345014 198.00513597 16.70246668 197.91307068 25.33358765 C197.20189401 31.16846894 193.85501049 35.20952891 189.56932068 39.02890015 C184.33815343 42.73431028 180.09254734 43.44916744 173.77078247 43.42805481 C172.60290332 43.43590983 172.60290332 43.43590983 171.41143066 43.44392353 C168.8060495 43.458909 166.200865 43.45962836 163.59544373 43.46029663 C161.72593352 43.46791909 159.85642646 43.47634673 157.98692322 43.48551941 C152.91039171 43.50746261 147.83392044 43.51626307 142.75734687 43.52134585 C139.58478376 43.5249896 136.41223643 43.53122975 133.23967934 43.53834724 C122.16897005 43.562841 111.09830762 43.57589351 100.02757263 43.57943726 C89.7125099 43.58307258 79.3977447 43.61296804 69.08277291 43.65484184 C60.22316204 43.68954515 51.36364978 43.7049857 42.5039714 43.70568329 C37.21410849 43.70647608 31.92454869 43.71521583 26.63475609 43.74368095 C21.65812872 43.76986218 16.68205575 43.77206637 11.70539093 43.75602531 C9.88170729 43.75421088 8.05799176 43.76090102 6.23437691 43.77684402 C-10.4098103 43.91345355 -10.4098103 43.91345355 -16.04545879 39.52565098 C-21.46278711 34.16100002 -24.70687489 29.77157966 -24.93067932 21.96640015 C-24.80928076 15.20601785 -23.19078595 10.96411316 -18.43067932 6.15390015 C-12.49413679 1.5030495 -7.50122448 0.00521524 0 0 Z " fill="#E8E5F9" transform="translate(129.43067932128906,325.8460998535156)"/>
<path d="M0 0 C0.77435369 -0.00297112 1.54870737 -0.00594224 2.34652632 -0.0090034 C4.94348678 -0.01768093 7.54040108 -0.01919785 10.13737488 -0.02069092 C11.99850564 -0.02531973 13.85963545 -0.03034448 15.72076416 -0.03573608 C20.77868688 -0.04885535 25.83659632 -0.05530404 30.8945334 -0.05974674 C34.05451464 -0.06267803 37.21449225 -0.06678294 40.37447166 -0.07125092 C50.26136471 -0.08492417 60.14824946 -0.09459185 70.0351513 -0.09845281 C81.44820568 -0.10293425 92.86114033 -0.12048693 104.2741583 -0.1494534 C113.09635851 -0.17106721 121.91852503 -0.18115692 130.74075145 -0.18249393 C136.0098399 -0.1835421 141.27881578 -0.18945276 146.54787636 -0.20731354 C151.5046763 -0.22378911 156.46127898 -0.22595218 161.41809654 -0.21717453 C163.23574222 -0.2164039 165.05339848 -0.22075027 166.87101746 -0.23063278 C169.35589654 -0.24334924 171.84007664 -0.23747736 174.32495117 -0.22705078 C175.04111298 -0.23510719 175.75727479 -0.24316359 176.49513847 -0.25146413 C183.28611628 -0.18499979 188.86754421 1.9962594 193.9974823 6.56231689 C197.47886339 10.61556751 199.09366132 15.357825 199.85295105 20.57794189 C198.77211348 28.27890961 196.32877346 34.14116255 190.13420105 38.98419189 C185.58537092 41.93694128 182.02863986 42.42906371 176.62997437 42.40113831 C175.84745357 42.40496385 175.06493278 42.4087894 174.25869924 42.41273087 C171.63404251 42.42305759 169.00960467 42.41906934 166.38493347 42.4151001 C164.50409747 42.41944682 162.62326323 42.42462983 160.74243164 42.43058777 C155.63077137 42.44399494 150.51918495 42.44455441 145.40751052 42.44202447 C141.14065495 42.44095569 136.87381438 42.44583588 132.60696203 42.45062989 C122.53945154 42.46173153 112.47197837 42.46215912 102.40446472 42.45611572 C92.01961098 42.45007761 81.63489278 42.46238134 71.25006217 42.48368579 C62.33443818 42.50130346 53.41885732 42.50730279 44.50321656 42.50404805 C39.17824611 42.50223494 33.85337229 42.50487394 28.52841759 42.51876259 C23.51907643 42.53133856 18.50994636 42.52939892 13.50060844 42.5163517 C11.66361673 42.51398568 9.82661017 42.51672151 7.98963547 42.52497482 C5.47847203 42.53544215 2.96801687 42.52734189 0.45687866 42.5146637 C-0.26706504 42.52203798 -0.99100875 42.52941227 -1.73689014 42.53701001 C-7.61899032 42.47469824 -12.32899332 41.19671346 -16.7915802 37.23809814 C-17.61722473 36.2306958 -17.61722473 36.2306958 -18.45954895 35.20294189 C-19.30452942 34.19940674 -19.30452942 34.19940674 -20.1665802 33.17559814 C-24.3378917 27.4414206 -24.50610732 22.10239413 -23.64704895 15.14044189 C-21.46566206 9.27796463 -16.86163124 4.5118385 -11.64704895 1.14044189 C-7.8478758 -0.16798654 -3.96834952 -0.00475685 0 0 Z " fill="#EBEAFB" transform="translate(91.64704895019531,91.85955810546875)"/>
<path d="M0 0 C0.79184004 -0.00765109 1.58368008 -0.01530219 2.39951527 -0.02318513 C5.03803119 -0.04373079 7.67566731 -0.03588374 10.3142395 -0.02792358 C12.21198325 -0.036623 14.10971996 -0.04699103 16.00744629 -0.05889893 C21.15217948 -0.08564682 26.29661852 -0.08683992 31.44140768 -0.08177233 C35.74055244 -0.07963062 40.03963797 -0.08940551 44.33877003 -0.09898317 C54.48363318 -0.12116259 64.62834822 -0.12205458 74.77322388 -0.10995483 C85.22926222 -0.09787547 95.68476229 -0.12249874 106.1407088 -0.16509497 C115.12693833 -0.20035388 124.11299674 -0.21232548 133.09929287 -0.20581949 C138.46240003 -0.20219757 143.82512322 -0.20742774 149.18816757 -0.23524857 C154.23306 -0.26044041 159.27711489 -0.25648557 164.32199478 -0.23042679 C166.16943904 -0.22570353 168.01694257 -0.23113527 169.86431885 -0.24767303 C186.70204962 -0.38749199 186.70204962 -0.38749199 193.29899788 4.92379189 C199.00972386 10.79175287 200.27537003 16.3878888 200.19754028 24.44326782 C199.52033457 30.50733713 196.26764538 34.46676812 191.79129028 38.39639282 C186.7443454 42.04737423 183.34442059 42.81515817 177.1308136 42.78881836 C176.34829281 42.79334947 175.56577201 42.79788059 174.75953847 42.802549 C172.13489002 42.81521903 169.51044838 42.81357096 166.88577271 42.81192017 C165.00493604 42.81790383 163.12410184 42.824709 161.24327087 42.83227539 C156.1316174 42.84995999 151.02003086 42.85463183 145.90834975 42.85590696 C141.64149305 42.8578054 137.37465196 42.86516237 133.10780126 42.87225115 C123.04029412 42.88854237 112.97282276 42.89341947 102.90530396 42.89199829 C92.52041629 42.89079693 82.13573647 42.911896 71.7509014 42.94348562 C62.83527625 42.96963955 53.91971902 42.98036594 45.0040558 42.97908747 C39.67904852 42.97857754 34.35422589 42.98427785 29.02925682 43.00544357 C24.01987101 43.02481078 19.01084624 43.02496072 14.00144768 43.01041031 C12.16445132 43.00831917 10.32743246 43.01304125 8.4904747 43.02513123 C5.97913215 43.04058706 3.46903399 43.031274 0.9577179 43.01586914 C0.23377419 43.02615627 -0.49016951 43.03644339 -1.2360509 43.04704225 C-7.4110675 42.96355446 -11.55646122 40.91677885 -16.07199097 36.74014282 C-16.52960815 36.17295532 -16.98722534 35.60576782 -17.45870972 35.02139282 C-17.92921753 34.45420532 -18.39972534 33.88701782 -18.88449097 33.30264282 C-22.72967468 27.87414817 -22.74705061 23.0382056 -22.14620972 16.52139282 C-20.59071725 10.4243165 -17.18614535 5.89717065 -12.01472282 2.40944862 C-8.08968859 0.23899514 -4.42323516 -0.04590551 0 0 Z " fill="#EAE8FA" transform="translate(127.14620971679688,207.47860717773438)"/>
<path d="M0 0 C1.87995712 -0.00486105 3.75990905 -0.01230476 5.6398468 -0.02212524 C10.72674383 -0.04087868 15.81286687 -0.0221487 20.89970326 0.00453901 C26.2317557 0.02723402 31.56377188 0.018948 36.89585876 0.01504517 C45.84769275 0.01328144 54.7992232 0.03539578 63.75097656 0.07226562 C74.09111195 0.11461078 84.43080305 0.12161669 94.7710076 0.10914171 C104.73163391 0.0977413 114.69210424 0.10906026 124.65270805 0.1314888 C128.88578624 0.14076215 133.11876875 0.1425366 137.35185432 0.13831711 C142.33839605 0.13454189 147.3244874 0.15083066 152.31092644 0.1824379 C154.13780733 0.19090176 155.96473401 0.19263937 157.79162598 0.1870575 C160.29146946 0.18057978 162.78998149 0.19885772 165.28968811 0.22323608 C166.36611851 0.21189811 166.36611851 0.21189811 167.46429497 0.20033109 C173.71063172 0.30760547 178.84396378 2.42390509 183.50366211 6.52587891 C183.94967773 7.09306641 184.39569336 7.66025391 184.85522461 8.24462891 C185.54745117 9.09541016 185.54745117 9.09541016 186.25366211 9.96337891 C190.01416264 15.42448796 190.19472994 20.22363719 189.48022461 26.74462891 C187.71708863 32.9208837 183.80535335 37.26834944 178.48022461 40.74462891 C174.23872233 42.85419732 170.35989827 43.02971958 165.71292114 43.00532532 C164.55010897 43.01106364 164.55010897 43.01106364 163.36380565 43.01691788 C160.76989297 43.02722494 158.17620259 43.02326011 155.58227539 43.01928711 C153.72099605 43.02363488 151.85971849 43.02881824 149.9984436 43.03477478 C144.94469169 43.04816963 139.89101454 43.04874286 134.83724833 43.04621148 C130.61756376 43.04514202 126.39789433 43.05002456 122.178213 43.0548169 C112.22239416 43.06591395 102.26661305 43.06634849 92.31079102 43.06030273 C82.04236346 43.05426297 71.77407293 43.06657359 61.50566876 43.0878728 C52.68768825 43.1054905 43.86975134 43.11148986 35.05175388 43.10823506 C29.78604271 43.1064222 24.52042927 43.10905865 19.25473404 43.1229496 C14.30201234 43.13552587 9.34950416 43.13358567 4.39678574 43.12053871 C2.58075641 43.11817288 0.76471206 43.12090784 -1.05130005 43.12916183 C-3.53394882 43.13963063 -6.01588137 43.13152782 -8.49850464 43.11885071 C-9.21398433 43.12622499 -9.92946401 43.13359928 -10.6666249 43.14119703 C-17.73666249 43.06545657 -23.42056641 40.70602143 -28.51977539 35.74462891 C-32.97618121 30.20423248 -33.19554321 25.14498994 -32.95727539 18.12353516 C-32.10741814 11.55990549 -29.06463521 7.66284727 -23.9858551 3.57241821 C-16.80370123 -1.04652226 -8.2189466 -0.07442839 0 0 Z " fill="#EAE8FA" transform="translate(189.519775390625,149.25537109375)"/>
<path d="M0 0 C0.93205765 -0.00860046 1.8641153 -0.01720093 2.82441711 -0.02606201 C4.35559677 -0.03245193 4.35559677 -0.03245193 5.91770935 -0.03897095 C7.53287193 -0.05123718 7.53287193 -0.05123718 9.18066406 -0.06375122 C12.75243066 -0.08860895 16.32415743 -0.1051247 19.89598083 -0.11953735 C21.72660222 -0.12752287 21.72660222 -0.12752287 23.59420586 -0.13566971 C30.0571772 -0.16240634 36.52012921 -0.18177732 42.98313904 -0.19619751 C49.64891686 -0.21159316 56.31413008 -0.25758074 62.97973728 -0.30856895 C68.11257473 -0.34228204 73.24529506 -0.35377962 78.37823296 -0.35942459 C80.83453594 -0.3661286 83.29083144 -0.38132829 85.74702644 -0.4053154 C89.19365047 -0.43704719 92.63894545 -0.43699056 96.0856781 -0.42959595 C97.09229492 -0.44600128 98.09891174 -0.46240662 99.1360321 -0.47930908 C106.15313689 -0.4179812 111.62885577 1.14418341 117.45457458 5.15390015 C123.44329532 11.44772279 124.88995079 16.7436311 124.79832458 25.33358765 C124.08714792 31.16846894 120.7402644 35.20952891 116.45457458 39.02890015 C112.21658254 42.03081118 108.77474282 43.40023549 103.57925415 43.42132568 C102.62472855 43.42985565 101.67020294 43.43838562 100.68675232 43.44717407 C99.65131287 43.4462677 98.61587341 43.44536133 97.54905701 43.44442749 C96.44927017 43.45114471 95.34948334 43.45786194 94.21636963 43.46478271 C90.58088156 43.48377939 86.94557795 43.48768785 83.31004333 43.48983765 C80.7804456 43.49626461 78.25084861 43.50299289 75.72125244 43.51000977 C70.41773963 43.52198687 65.11429546 43.52577586 59.81077576 43.52450562 C53.69462614 43.5233051 47.57882992 43.5443923 41.46276969 43.57599294 C35.56438624 43.60537496 29.66610993 43.61247958 23.7676487 43.61128616 C21.2650591 43.61364363 18.76246679 43.6224753 16.25992393 43.6379509 C12.75574477 43.65759068 9.25247012 43.65177965 5.74827576 43.63973999 C4.718909 43.650979 3.68954224 43.66221802 2.62898254 43.67379761 C-4.61298088 43.61070975 -10.02006124 42.19605803 -15.56886292 37.4078064 C-16.01487854 36.84964233 -16.46089417 36.29147827 -16.92042542 35.71640015 C-17.38190979 35.16081421 -17.84339417 34.60522827 -18.31886292 34.0328064 C-22.01757289 28.36694812 -22.39488374 22.74172055 -21.54542542 16.15390015 C-19.15796489 8.72495746 -14.30838971 4.70002375 -7.54542542 1.15390015 C-4.71094362 0.20907288 -2.93879758 0.0202128 0 0 Z " fill="#E7E1F7" transform="translate(266.54542541503906,383.8460998535156)"/>
<path d="M0 0 C8.85820621 -0.11616439 17.71614776 -0.20485133 26.57495117 -0.25906086 C30.68907697 -0.285087 34.80267931 -0.32035526 38.91650391 -0.37719727 C42.89119567 -0.4317693 46.86538591 -0.461473 50.84042358 -0.47438622 C52.35224292 -0.48358126 53.86403671 -0.50153712 55.37564087 -0.52865028 C65.27210834 -0.69900154 71.67774685 0.05141548 79.05859375 6.9140625 C79.51363281 7.47867188 79.96867187 8.04328125 80.4375 8.625 C80.91058594 9.19476563 81.38367188 9.76453125 81.87109375 10.3515625 C85.17716442 15.17911207 84.69688521 21.4384501 84 27 C81.58387544 33.47271746 77.91909487 37.78059105 71.9296875 41.16015625 C68.45658756 42.67172809 65.31382793 43.1249082 61.54099655 43.12304783 C60.64824988 43.12503888 59.75550321 43.12702993 58.83570361 43.12908131 C57.85905411 43.12616847 56.88240461 43.12325563 55.87615967 43.12025452 C54.31519967 43.12153615 54.31519967 43.12153615 52.72270513 43.12284368 C49.22495014 43.12449485 45.72724278 43.118983 42.22949219 43.11352539 C39.72647096 43.11324341 37.22344965 43.11340146 34.72042847 43.1139679 C29.32605117 43.11419584 23.93168878 43.11135373 18.53731537 43.10573006 C10.73794984 43.09760445 2.93859016 43.09499875 -4.86077914 43.09374207 C-17.51461128 43.09155322 -30.16843698 43.08489765 -42.82226562 43.07543945 C-55.11458301 43.06626102 -67.40689864 43.05918229 -79.69921875 43.05493164 C-80.45686473 43.05466892 -81.21451072 43.05440619 -81.99511567 43.05413551 C-85.79598722 43.05283048 -89.59685878 43.05156677 -93.39773035 43.05032361 C-124.93182492 43.0399562 -156.46591148 43.0222681 -188 43 C-188 42.67 -188 42.34 -188 42 C-187.02816521 41.99945523 -186.05633041 41.99891047 -185.05504608 41.99834919 C-161.40184263 41.98395007 -137.74882314 41.94091806 -114.09572601 41.86790943 C-102.65722016 41.83326489 -91.21883474 41.8079046 -79.78027344 41.80444336 C-69.80973964 41.80140274 -59.83942038 41.78089888 -49.86896944 41.73947543 C-44.59024772 41.71815284 -39.31183096 41.70554112 -34.0330658 41.71384621 C-29.06217883 41.72139088 -24.09190953 41.70554627 -19.12113571 41.67193985 C-17.29909968 41.66371166 -15.47700217 41.66395065 -13.65497208 41.67340279 C-0.89385933 41.97078306 -0.89385933 41.97078306 10 36 C13.82248331 31.2721917 15.63029747 26.74636165 16.4375 20.75 C15.7539906 14.89134804 13.56957571 9.46633383 9.25 5.3203125 C6.34304383 3.20274529 3.21959386 1.57809414 0 0 Z " fill="#8A7EE5" transform="translate(274,92)"/>
<path d="M0 0 C8.59749375 -0.09294702 17.19477528 -0.16388933 25.79264832 -0.20724869 C29.78561229 -0.22806593 33.77823086 -0.25627489 37.77099609 -0.30175781 C41.62896081 -0.3454269 45.48659467 -0.36918115 49.3447876 -0.37950897 C50.81192224 -0.38686282 52.27904009 -0.40122288 53.74603271 -0.42292023 C61.7204715 -0.53610467 68.18311775 -0.56739404 75 4 C79.73392063 8.73392063 82.55499217 13.63065497 83.4375 20.3125 C82.52765309 27.98120965 80.0121577 33.92373874 73.9765625 38.84375 C69.21609601 41.62852882 64.70398932 42.24790801 59.26025391 42.22705078 C58.61564209 42.22734283 57.97103027 42.22763489 57.30688477 42.22793579 C55.19663577 42.22655315 53.08674908 42.21104311 50.9765625 42.1953125 C49.50540357 42.19157856 48.03424215 42.18873339 46.56307983 42.18673706 C42.70628902 42.17913056 38.84965079 42.159508 34.99291992 42.1373291 C31.05129052 42.11680613 27.10963627 42.10772159 23.16796875 42.09765625 C15.44524323 42.07625903 7.72264306 42.04215949 0 42 C0.62253662 41.53376221 1.24507324 41.06752441 1.88647461 40.5871582 C9.51966816 35.04815046 9.51966816 35.04815046 14 27 C14.7381349 20.46750616 14.71226728 14.47022522 11.34375 8.68359375 C9.01741364 5.76891069 6.17142613 3.8984407 3 2 C2.01 1.34 1.02 0.68 0 0 Z " fill="#8671DE" transform="translate(248,269)"/>
<path d="M0 0 C8.61478889 -0.06966222 17.22945911 -0.12289325 25.84446049 -0.15543652 C29.84522041 -0.17105956 33.84578692 -0.19223588 37.84643555 -0.22631836 C41.71086452 -0.25903248 45.57510802 -0.27687827 49.43966484 -0.28463173 C50.91039383 -0.2901537 52.38111323 -0.3009367 53.85176277 -0.31719017 C55.9197049 -0.33912569 57.98689098 -0.34196036 60.05493164 -0.34057617 C61.81698692 -0.35056892 61.81698692 -0.35056892 63.61463928 -0.36076355 C69.63317871 0.2806067 74.63878081 2.75665159 79 7 C83.8678943 13.18354141 83.91233469 19.321183 83 27 C81.43359353 33.03066491 77.96390029 36.31298553 73 39.87109375 C68.90493346 42.18256686 65.03884023 42.12225346 60.39550781 42.11352539 C59.41439781 42.11374443 59.41439781 42.11374443 58.41346741 42.1139679 C56.25998574 42.11327341 54.10659148 42.10550283 51.953125 42.09765625 C50.45668586 42.09579042 48.96024612 42.09436729 47.46380615 42.09336853 C43.53141585 42.08955635 39.59906268 42.07973717 35.66668701 42.06866455 C31.65149437 42.05842249 27.6362957 42.05386492 23.62109375 42.04882812 C15.74737883 42.03811372 7.87369404 42.02105291 0 42 C1.95702015 40.6953199 3.93582457 39.42257633 5.9375 38.1875 C10.61406157 34.84709888 13.14532969 31.39827442 15 26 C15.94662871 19.33374099 15.42005274 14.15431209 11.42578125 8.65234375 C8.11469077 4.81510738 4.77397741 2.63679225 0 1 C0 0.67 0 0.34 0 0 Z " fill="#8671DE" transform="translate(363,150)"/>
<path d="M0 0 C8.46710909 -0.09295482 16.93400258 -0.16389321 25.40149689 -0.20724869 C29.33392955 -0.22806427 33.26601139 -0.25627007 37.19824219 -0.30175781 C40.99785274 -0.345433 44.79712727 -0.36918239 48.5969696 -0.37950897 C50.04177637 -0.38686174 51.48656614 -0.40121968 52.93122864 -0.42292023 C69.15416523 -0.65676829 69.15416523 -0.65676829 75.50646973 5.44769287 C80.76407119 11.41132582 81.46176616 15.94543417 81.3046875 23.73828125 C80.78299382 29.32307898 79.19689589 32.94716286 75.09375 36.78125 C69.49471553 41.21033697 65.63042045 42.12715729 58.48730469 42.11352539 C57.52082504 42.11374443 57.52082504 42.11374443 56.53482056 42.1139679 C54.41380397 42.1132735 52.29287617 42.10550336 50.171875 42.09765625 C48.69785612 42.09579039 47.22383662 42.09436728 45.74981689 42.09336853 C41.87661008 42.08955661 38.00344097 42.07973765 34.13024902 42.06866455 C30.17537954 42.05842193 26.22050394 42.0538648 22.265625 42.04882812 C14.51039951 42.03811418 6.75520504 42.02105369 -1 42 C-0.37746338 41.53376221 0.24507324 41.06752441 0.88647461 40.5871582 C8.51966816 35.04815046 8.51966816 35.04815046 13 27 C13.637449 20.48185952 13.91340753 14.53274857 10 9 C6.93497261 5.61233815 3.57238743 2.83162482 0 0 Z " fill="#8671DE" transform="translate(313,208)"/>
<path d="M0 0 C8.59749375 -0.09294702 17.19477528 -0.16388933 25.79264832 -0.20724869 C29.78561229 -0.22806593 33.77823086 -0.25627489 37.77099609 -0.30175781 C41.62896081 -0.3454269 45.48659467 -0.36918115 49.3447876 -0.37950897 C50.81192224 -0.38686282 52.27904009 -0.40122288 53.74603271 -0.42292023 C70.15785857 -0.65585992 70.15785857 -0.65585992 76.50561523 5.44769287 C81.7638911 11.40836902 82.46656351 15.94651484 82.30078125 23.73828125 C81.88275133 28.27146281 80.98839922 31.52144007 78 35 C72.03384229 39.91077241 67.27190053 42.12808987 59.5090332 42.11352539 C58.52814224 42.11374443 58.52814224 42.11374443 57.5274353 42.1139679 C55.36851674 42.11327188 53.20968472 42.10549408 51.05078125 42.09765625 C49.55291287 42.09579096 48.05504389 42.09436758 46.55717468 42.09336853 C42.61654981 42.08955207 38.67596186 42.0797292 34.73535156 42.06866455 C30.71354675 42.05843172 26.69173596 42.0538669 22.66992188 42.04882812 C14.77993099 42.03810616 6.88997009 42.02104017 -1 42 C0.95702015 40.6953199 2.93582457 39.42257633 4.9375 38.1875 C9.14079911 35.18514349 12.0070259 31.76432006 14 27 C14.7809814 20.37687198 14.35464204 14.78386559 11 9 C7.76056102 5.14769418 4.58954308 3.02793764 0 1 C0 0.67 0 0.34 0 0 Z " fill="#8367D9" transform="translate(312,327)"/>
<path d="M0 0 C8.59749375 -0.09294702 17.19477528 -0.16388933 25.79264832 -0.20724869 C29.78561229 -0.22806593 33.77823086 -0.25627489 37.77099609 -0.30175781 C41.62896081 -0.3454269 45.48659467 -0.36918115 49.3447876 -0.37950897 C50.81192224 -0.38686282 52.27904009 -0.40122288 53.74603271 -0.42292023 C70.15785857 -0.65585992 70.15785857 -0.65585992 76.50561523 5.44769287 C81.82875042 11.48189225 82.39088458 15.99526147 82.25 23.8671875 C81.83862221 29.02226538 80.04939451 31.74072659 76.8125 35.625 C68.53618027 42.61389222 60.898733 42.54350157 50.5625 42.390625 C49.07178511 42.38315296 47.58106031 42.37746458 46.09033203 42.37347412 C42.19061565 42.35829323 38.29150711 42.31907846 34.39202881 42.2746582 C30.40336324 42.23354109 26.41459824 42.21542823 22.42578125 42.1953125 C14.61691214 42.15257521 6.80854165 42.0844177 -1 42 C0.95702015 40.6953199 2.93582457 39.42257633 4.9375 38.1875 C9.14079911 35.18514349 12.0070259 31.76432006 14 27 C14.7809814 20.37687198 14.35464204 14.78386559 11 9 C7.76056102 5.14769418 4.58954308 3.02793764 0 1 C0 0.67 0 0.34 0 0 Z " fill="#805CD4" transform="translate(376,385)"/>
</svg>
