<!--?xml version="1.0" encoding="utf-8"?-->
<!-- Generator: Adobe Illustrator 18.1.1, SVG Export Plug-In . SVG Version: 6.00 Build 0)  -->

<svg version="1.1" id="_x32_" xmlns="http://www.w3.org/2000/svg" xmlns:xlink="http://www.w3.org/1999/xlink" x="0px" y="0px" viewBox="0 0 512 512" style="width: 48px; height: 48px; opacity: 1;" xml:space="preserve">
<style type="text/css">
	.st0{fill:#4B4B4B;}
</style>
<g>
	<path class="st0" d="M500.781,224.245L447,211.561c-4.93-21.263-13.289-41.202-24.509-59.193l29.053-46.992
		c3.552-5.763,2.685-13.184-2.097-17.965l-24.86-24.86c-4.772-4.772-12.202-5.64-17.956-2.088L359.64,89.517
		C341.648,78.298,321.719,69.929,300.456,65l-12.693-53.78C286.211,4.649,280.334,0,273.588,0h-35.166
		c-6.755,0-12.623,4.649-14.176,11.219L211.553,65c-21.263,4.93-41.194,13.29-59.175,24.509l-47.001-29.053
		c-5.745-3.544-13.193-2.675-17.956,2.088L62.553,87.412c-4.781,4.78-5.641,12.211-2.088,17.956l29.044,47
		C78.289,170.36,69.929,190.289,65,211.552l-53.772,12.684C4.657,225.798,0,231.676,0,238.412v35.166
		c0,6.763,4.649,12.623,11.228,14.175L65,300.447c4.93,21.264,13.299,41.194,24.518,59.185l-29.053,46.991
		c-3.544,5.746-2.684,13.202,2.08,17.965l24.868,24.86c4.781,4.789,12.21,5.64,17.965,2.087l47.001-29.044
		c17.982,11.22,37.912,19.579,59.175,24.508l12.692,53.781c1.553,6.58,7.421,11.22,14.176,11.22h35.166
		c6.746,0,12.623-4.64,14.175-11.22l12.693-53.781c21.254-4.93,41.192-13.288,59.176-24.508l47,29.053
		c5.754,3.552,13.184,2.684,17.956-2.096l24.869-24.86c4.772-4.772,5.64-12.21,2.088-17.956l-29.053-47
		c11.22-17.983,19.579-37.921,24.509-59.176l53.781-12.693c6.588-1.561,11.219-7.429,11.219-14.184V238.42
		C512,231.666,507.36,225.798,500.781,224.245z M256,390.614c-74.334,0-134.606-60.272-134.606-134.614
		c0-74.342,60.272-134.615,134.606-134.615c74.359,0,134.623,60.272,134.623,134.615C390.623,330.342,330.359,390.614,256,390.614z"></path>
	<path class="st0" d="M256,170.684c-47.114,0-85.316,38.194-85.316,85.316s38.202,85.315,85.316,85.315
		c47.123,0,85.316-38.192,85.316-85.315S303.123,170.684,256,170.684z M256,297.859c-23.114,0-41.86-18.746-41.86-41.859
		c0-23.114,18.746-41.86,41.86-41.86c23.114,0,41.859,18.746,41.859,41.86C297.859,279.114,279.114,297.859,256,297.859z"></path>
</g>
</svg>
