<?xml version="1.0" encoding="UTF-8"?>
<svg version="1.1" xmlns="http://www.w3.org/2000/svg" width="48" height="48" viewBox="0 0 500 500">
<path d="M0 0 C39.17274252 36.29718109 60.35528351 83.94557985 62.44287109 137.21069336 C63.25000186 182.30239859 48.35773884 228.80584457 18.31396484 262.92163086 C17.37383545 263.78022705 16.43370605 264.63882324 15.46508789 265.5234375 C9.57075343 270.99742399 6.37940096 275.0598347 6.05615234 283.26538086 C6.00903508 286.32283517 6.0910049 289.36591647 6.18896484 292.42163086 C6.19992392 294.02283907 6.20517878 295.62409612 6.20483398 297.2253418 C6.20824779 300.36244744 6.235283 303.49777894 6.28222656 306.63452148 C6.3474709 312.16027341 6.08909872 317.65729048 5.75146484 323.17163086 C5.66665058 324.71849606 5.58199106 326.26536977 5.49755859 327.81225586 C5.43697266 328.83834961 5.37638672 329.86444336 5.31396484 330.92163086 C-1.74085317 329.2982816 -8.42129466 326.93978302 -15.16650391 324.35522461 C-17.82758367 323.36099997 -20.49049933 322.37185466 -23.15405273 321.38427734 C-24.96460177 320.70176586 -26.76881608 320.00220365 -28.56616211 319.28564453 C-41.79268664 313.94645719 -41.79268664 313.94645719 -55.38525391 316.32397461 C-57.85921323 317.45735602 -60.26280475 318.67905034 -62.68603516 319.92163086 C-64.39193774 320.55113804 -66.11208804 321.14492908 -67.85009766 321.67944336 C-68.95708008 322.02616089 -68.95708008 322.02616089 -70.08642578 322.37988281 C-85.15032474 326.8947542 -100.91206358 330.45046028 -116.68603516 330.92163086 C-117.98798828 330.9615918 -119.28994141 331.00155273 -120.63134766 331.04272461 C-173.65339614 332.08587902 -222.9083105 313.11978996 -261.11962891 276.41772461 C-297.80631886 240.64844589 -316.96127469 192.32408211 -317.87353516 141.35913086 C-317.37775211 86.69905032 -295.11319346 39.10695836 -256.72119141 0.94897461 C-192.55625256 -60.22336078 -90.74595669 -64.01261056 0 0 Z M-171.68603516 82.92163086 C-171.68603516 121.20163086 -171.68603516 159.48163086 -171.68603516 198.92163086 C-167.63082762 197.29954784 -163.84600745 195.51019871 -160.00634766 193.46459961 C-159.36603607 193.12564163 -158.72572449 192.78668365 -158.06600952 192.43745422 C-155.97935107 191.33111956 -153.89504563 190.2204446 -151.81103516 189.10913086 C-151.09230225 188.72692383 -150.37356934 188.3447168 -149.63305664 187.95092773 C-139.84041225 182.74094085 -130.13518476 177.40453307 -120.51098633 171.88842773 C-110.83370569 166.37274606 -100.98398143 161.18625136 -91.12353516 156.00756836 C-82.53756975 151.48986044 -74.07761075 146.79103753 -65.68603516 141.92163086 C-65.68603516 141.26163086 -65.68603516 140.60163086 -65.68603516 139.92163086 C-66.29261963 139.59590088 -66.8992041 139.2701709 -67.52416992 138.93457031 C-78.64225909 132.95689 -89.72629399 126.93560899 -100.68603516 120.67163086 C-110.5981737 115.01536541 -120.65244279 109.65411789 -130.7479248 104.33532715 C-140.87201163 98.99934211 -150.88633051 93.51703541 -160.78369141 87.76733398 C-161.64349609 87.27168945 -162.50330078 86.77604492 -163.38916016 86.26538086 C-164.12811523 85.83418945 -164.86707031 85.40299805 -165.62841797 84.95874023 C-167.92710935 83.70547605 -167.92710935 83.70547605 -171.68603516 82.92163086 Z " fill="rgb(75, 75, 75)" transform="translate(377.68603515625,109.078369140625)"/>
<path d="M0 0 C0.92892059 0.00215515 1.85784119 0.0043103 2.81491089 0.00653076 C16.20527413 0.05639961 29.1909301 0.42741361 42.3125 3.3125 C43.75254395 3.61051514 43.75254395 3.61051514 45.22167969 3.91455078 C86.20524639 12.49295491 122.18065697 30.95400197 153.0234375 59.26953125 C154.60407861 60.68023996 156.23358018 62.03739845 157.8984375 63.34765625 C160.05557683 65.10338616 161.77696655 66.81830626 163.5625 68.9375 C166.16048062 71.98900741 168.83055521 74.94303782 171.5625 77.875 C207.46168302 117.85086991 225.80114801 171.43468843 225.6875 224.6875 C225.68728851 225.60636993 225.68707703 226.52523987 225.68685913 227.47195435 C225.65191518 242.73981323 224.64311214 257.36277846 221.3125 272.3125 C221.12526367 273.1669873 220.93802734 274.02147461 220.74511719 274.90185547 C219.49167092 280.44494555 217.99270128 285.88451322 216.3125 291.3125 C216.07192871 292.0972168 215.83135742 292.88193359 215.58349609 293.69042969 C207.68950422 318.92074454 195.44062943 343.13032763 178.625 363.59765625 C178.16859131 364.16339355 177.71218262 364.72913086 177.24194336 365.31201172 C175.94728727 366.9107351 174.63240196 368.49301474 173.31640625 370.07421875 C169.72187335 375.88292787 170.16361059 382.96681402 170.06640625 389.65234375 C170.03347722 391.22591722 170.00026542 392.79948479 169.96679688 394.37304688 C169.91947962 396.81270485 169.87496238 399.25233732 169.83569336 401.69213867 C169.60642723 415.31768581 169.26764409 428.28733374 159.875 439.125 C159.029375 439.846875 158.18375 440.56875 157.3125 441.3125 C156.013125 442.5809375 156.013125 442.5809375 154.6875 443.875 C146.97837373 450.04230102 137.19451497 451.48241621 127.5559082 450.68481445 C119.77620562 449.39370046 112.34092644 446.35653709 105.03515625 443.48828125 C90.36316364 437.82834253 79.69426149 434.5400537 64.58984375 441.078125 C63.73374512 441.46033203 62.87764648 441.84253906 61.99560547 442.23632812 C57.26729144 444.13281659 52.35287438 445.1047489 47.375 446.125 C46.488125 446.31843994 45.60125 446.51187988 44.6875 446.71118164 C29.96386469 449.81068035 15.67857943 450.68735238 0.6875 450.625 C-0.24391815 450.62284485 -1.1753363 450.6206897 -2.13497925 450.61846924 C-15.54385687 450.56863871 -28.54776049 450.20158141 -41.6875 447.3125 C-43.12754395 447.01448486 -43.12754395 447.01448486 -44.59667969 446.71044922 C-85.58024639 438.13204509 -121.55565697 419.67099803 -152.3984375 391.35546875 C-153.97907861 389.94476004 -155.60858018 388.58760155 -157.2734375 387.27734375 C-159.43057683 385.52161384 -161.15196655 383.80669374 -162.9375 381.6875 C-165.53548062 378.63599259 -168.20555521 375.68196218 -170.9375 372.75 C-206.93318484 332.6666696 -225.22308 279.0061364 -225 225.625 C-224.99784485 224.69607941 -224.9956897 223.76715881 -224.99346924 222.81008911 C-224.94360039 209.41972587 -224.57258639 196.4340699 -221.6875 183.3125 C-221.48882324 182.3524707 -221.29014648 181.39244141 -221.08544922 180.40332031 C-212.50704509 139.41975361 -194.04599803 103.44434303 -165.73046875 72.6015625 C-164.31976004 71.02092139 -162.96260155 69.39141982 -161.65234375 67.7265625 C-159.89661384 65.56942317 -158.18169374 63.84803345 -156.0625 62.0625 C-153.01099259 59.46451938 -150.05696218 56.79444479 -147.125 54.0625 C-107.0416696 18.06681516 -53.3811364 -0.22308 0 0 Z M-153.70141602 84.36474609 C-190.39979319 123.03735026 -209.97558978 177.2563639 -208.6875 230.3125 C-206.27072957 289.9798766 -180.81286679 342.24920221 -137.20849609 382.53491211 C-97.73107038 417.90168978 -43.86669781 436.41929595 8.92919922 434.20263672 C32.24403354 432.84605796 54.11229091 428.00462041 76.05200195 420.08105469 C80.19222647 418.67340518 82.46952502 418.06669162 86.69458008 419.56005859 C87.5525972 419.85721771 88.41061432 420.15437683 89.29463196 420.46054077 C90.67439461 420.95573715 90.67439461 420.95573715 92.08203125 421.4609375 C93.03639572 421.79292145 93.99076019 422.1249054 94.9740448 422.46694946 C98.02796775 423.53047555 101.07673277 424.60788032 104.125 425.6875 C107.16301741 426.75852334 110.20203487 427.82634996 113.24382019 428.8866272 C115.13604217 429.54666181 117.02607381 430.21301979 118.91352844 430.88656616 C126.66493399 433.59819702 132.86461141 435.18542639 140.875 432.5234375 C145.8778826 430.03803108 149.15806175 425.93428865 151.38525391 420.8762207 C152.67751362 415.90962907 152.54415627 411.17227373 152.5234375 406.0625 C152.5503665 403.82157627 152.5804159 401.58068828 152.61328125 399.33984375 C152.65875 395.83483909 152.68765275 392.33387039 152.66259766 388.82861328 C152.54443115 366.26519829 152.54443115 366.26519829 160.03125 358.234375 C161.61695444 356.65687662 163.23148558 355.13450499 164.89666748 353.64135742 C167.98368215 350.74397917 170.15773032 347.10055656 172.4375 343.5625 C172.92702148 342.81282959 173.41654297 342.06315918 173.92089844 341.29077148 C190.03495941 316.28268754 200.69752805 289.52313155 206.3125 260.3125 C206.63541016 258.66701172 206.63541016 258.66701172 206.96484375 256.98828125 C215.98301746 203.47167378 201.29238788 148.23905725 170.3125 104.3125 C169.87583008 103.69197754 169.43916016 103.07145508 168.98925781 102.43212891 C137.50151568 58.32182242 88.01287274 28.08668397 34.73046875 19.08984375 C-36.65590146 8.19368178 -103.82613138 33.08190154 -153.70141602 84.36474609 Z " fill="rgb(75, 75, 75)" transform="translate(249.6875,24.6875)"/>
</svg>
