<!--?xml version="1.0" encoding="utf-8"?-->
<!-- Generator: Adobe Illustrator 18.1.1, SVG Export Plug-In . SVG Version: 6.00 Build 0)  -->

<svg version="1.1" id="_x32_" xmlns="http://www.w3.org/2000/svg" xmlns:xlink="http://www.w3.org/1999/xlink" x="0px" y="0px" viewBox="0 0 512 512" style="width: 48px; height: 48px; opacity: 1;" xml:space="preserve">
<style type="text/css">
	.st0{fill:#4B4B4B;}
</style>
<g>
	<path class="st0" d="M352.705,62.572h-193.41C71.321,62.572,0,133.893,0,221.855c0,87.986,71.321,159.307,159.295,159.307h152.17
		c22.76,0,29.872,10.569,29.872,19.22c0,12.791-6.649,24.796-22.748,36.268c-9.969,7.101-2.128,12.779,5.69,12.779
		c101.678,0,187.72-110.942,187.72-227.574C512,133.893,440.691,62.572,352.705,62.572z M135.054,252.109
		c-16.722,0-30.254-13.543-30.254-30.254s13.531-30.242,30.254-30.242c16.7,0,30.232,13.531,30.232,30.242
		S151.755,252.109,135.054,252.109z M256,252.109c-16.699,0-30.254-13.543-30.254-30.254s13.555-30.242,30.254-30.242
		c16.7,0,30.254,13.531,30.254,30.242S272.7,252.109,256,252.109z M376.946,252.109c-16.699,0-30.23-13.543-30.23-30.254
		s13.531-30.242,30.23-30.242c16.723,0,30.254,13.531,30.254,30.242S393.668,252.109,376.946,252.109z"></path>
</g>
</svg>
