<!--?xml version="1.0" encoding="utf-8"?-->
<!-- Generator: Adobe Illustrator 15.1.0, SVG Export Plug-In . SVG Version: 6.00 Build 0)  -->

<svg version="1.1" id="_x32_" xmlns="http://www.w3.org/2000/svg" xmlns:xlink="http://www.w3.org/1999/xlink" x="0px" y="0px" width="512px" height="512px" viewBox="0 0 512 512" style="width: 48px; height: 48px; opacity: 1;" xml:space="preserve">
<style type="text/css">

	.st0{fill:#4B4B4B;}

</style>
<g>
	<path class="st0" d="M482.703,98.813C456.469,77.625,363.953,61,256,61S55.531,77.625,29.297,98.813C5.188,118.25,0,206.125,0,256
		s5.188,137.75,29.297,157.188C55.531,434.375,148.047,451,256,451s200.469-16.625,226.703-37.813
		C506.813,393.75,512,305.875,512,256S506.813,118.25,482.703,98.813z M332.813,258.406l-118.844,70.938
		c-0.875,0.5-1.938,0.531-2.813,0.031s-1.422-1.438-1.422-2.438V256v-70.938c0-1.016,0.547-1.938,1.422-2.438
		s1.938-0.469,2.813,0.031l118.844,70.938c0.844,0.5,1.359,1.406,1.359,2.406C334.172,256.969,333.656,257.906,332.813,258.406z"></path>
</g>
</svg>
